<svg xmlns="http://www.w3.org/2000/svg" viewBox="0 0 195.75 60.73"><title>name</title><g id="Layer_2" data-name="Layer 2"><g id="Layer_1-2" data-name="Layer 1"><path d="M12.17,22a8.44,8.44,0,0,0,1.05-2.09,3,3,0,0,0,.07-1.55A3,3,0,0,0,12.53,17,12.65,12.65,0,0,0,11,15.71c-2.74,1.44-4.7,2.44-5.9,3s-1.9.72-2.09.43,0-.62.36-1.15a8.43,8.43,0,0,1,2.37-2,41.34,41.34,0,0,0,3.5-2.66A36.15,36.15,0,0,0,12.75,10a9.51,9.51,0,0,0,1.94-2.59,2.37,2.37,0,0,0-.21-2A5.6,5.6,0,0,1,13.94,4c-.08-.38,0-.6.18-.65s.55.12,1.08.51a18.52,18.52,0,0,1,2.16,2,8.49,8.49,0,0,1,1.11,1.3,1.24,1.24,0,0,1,.25.9,1.25,1.25,0,0,1-.43.72l-.93.83q-.66.57-1.8,1.44a14.27,14.27,0,0,0-2,1.8,8.24,8.24,0,0,0-.94,1.08.87.87,0,0,0-.1.86,2.67,2.67,0,0,0,.9,1q.72.54,2,1.41c.87.57,1.32,1.15,1.37,1.72a1.88,1.88,0,0,1-.72,1.59,16.82,16.82,0,0,0-2.27,2.48,35.3,35.3,0,0,0-2.34,3.64c-.38.67-.75,1.31-1.11,1.91s-.74,1.16-1.12,1.69q2.37,1.44,2.09,5.25c-.1,1-.18,2.43-.25,4.25s-.12,3.76-.15,5.8,0,4.07,0,6.08.14,3.72.29,5.11c.09,1.06,0,1.66-.4,1.8s-.73-.26-1.12-1.22a17.86,17.86,0,0,1-.93-5c0-1,0-2.81.14-5.54s.34-6.34.58-10.8a12.52,12.52,0,0,0-.11-2.7,4,4,0,0,0-.9-1.84Q6.78,34,5.15,36.23c-1.08,1.48-2.19,3-3.35,4.53a5.6,5.6,0,0,1-1.15,1.3c-.24.14-.43-.12-.57-.79A2.67,2.67,0,0,1,.26,39.5,9.77,9.77,0,0,1,2,37a75.87,75.87,0,0,0,4.64-6.34Q9.29,26.64,12.17,22ZM33,1a1,1,0,0,1-.54-.51.32.32,0,0,1,.18-.43,1.63,1.63,0,0,1,.94,0,7.1,7.1,0,0,1,1.8.68c1.39.67,2.18,1.28,2.37,1.84a1.88,1.88,0,0,1-.57,1.83c-.39.39-.72.73-1,1a4.38,4.38,0,0,0-.79,1.4c-.24.53-.47,1-.69,1.55s-.44,1-.68,1.47a10.38,10.38,0,0,1,2.16.65,21.44,21.44,0,0,1,4.39,3.17q2.31,2.09,4.68,4.61,1.8,1.93,3.06,3.2a25.6,25.6,0,0,0,2.23,2,14.07,14.07,0,0,0,1.77,1.19,9.55,9.55,0,0,0,1.72.72c1,.28,1.82.55,2.56.79s1.44.48,2.09.72,1.27.5,1.87.79,1.24.6,1.91.94c.91.48,1.38.93,1.4,1.36s-.59.56-1.83.36A38,38,0,0,1,55.48,29a12.25,12.25,0,0,1-4.21-2.16q-1.52-1.23-3.53-3.17t-3.89-4c-.62-.68-1.33-1.38-2.12-2.13s-1.59-1.44-2.38-2.09-1.52-1.22-2.19-1.72a11,11,0,0,0-1.59-1.05,9.88,9.88,0,0,0-1.26-.54,10.17,10.17,0,0,0-1.19-.32Q31.68,15,30.5,17.51c-.8,1.68-1.6,3.28-2.42,4.82s-1.69,3.1-2.62,4.68-2,3.36-3.21,5.33a20.79,20.79,0,0,1-1.58,2.34A7.45,7.45,0,0,1,17,37.2a27.38,27.38,0,0,1-2.91.75c-.58.1-.88,0-.9-.28s.32-.58,1-.87a12.54,12.54,0,0,0,3.53-2.12,13.55,13.55,0,0,0,2.59-3.13c1.06-1.88,2.05-3.63,3-5.26s1.81-3.24,2.63-4.82,1.62-3.17,2.41-4.76,1.59-3.24,2.41-5c-.19-.24,0-.65.58-1.23.38-.86.78-1.76,1.18-2.7s.83-1.91,1.26-2.91a4.37,4.37,0,0,0,.54-2.27C34.31,2.09,33.84,1.55,33,1ZM21.1,44.72c-.1-.38,0-.55.43-.5a1,1,0,0,1,.79.79,5,5,0,0,1,.15,1.87,12,12,0,0,1-.87,3.31c1.35-1.1,2.46-2,3.35-2.66s1.65-1.22,2.27-1.66c.86-.62,1.3-.79,1.3-.5s-.46.86-1.37,1.73a21.11,21.11,0,0,0-3.78,4.14,15.54,15.54,0,0,0-1.69,3.27c-.29.92-.6,1.4-.94,1.44s-.6-.38-.79-1.29q-.87-4.11-.15-5a3.64,3.64,0,0,0,.54-1c.17-.41.33-.84.47-1.3A6.7,6.7,0,0,0,21.1,46,5,5,0,0,0,21.1,44.72Zm5.69-17.78c-.58-.43-.75-.83-.51-1.19s.77-.42,1.59-.18a4.6,4.6,0,0,0,1.55,0,13.48,13.48,0,0,0,1.9-.4,18.46,18.46,0,0,0,2-.68c.65-.27,1.24-.52,1.77-.76a13.12,13.12,0,0,1,3.42-1.15,4.69,4.69,0,0,1,2.77.07c.67.34,1,.72,1.12,1.15a.82.82,0,0,1-.47.94,10.65,10.65,0,0,0-3.1,2.81c-.43.52-.9,1.05-1.4,1.58S36.34,30.3,35.72,31c0,.58.07,1.19.07,1.84s0,1.3.07,2l2.66-.8a16.51,16.51,0,0,1,2.24-.5,8.38,8.38,0,0,1,3,0,3.15,3.15,0,0,1,1.44.62c.24.24.15.48-.25.72a5.47,5.47,0,0,1-2.27.43q-1,.08-2.85.36c-1.22.19-2.53.45-3.92.79.1,2,.17,3.85.22,5.65s.12,3.06.21,3.78.09,1.62.11,2.7,0,2.16,0,3.24,0,2.1-.08,3.06A6.64,6.64,0,0,1,36,57c-.33,1-.66,1.45-1,1.48s-.85-.4-1.62-1.26a30.32,30.32,0,0,0-3.27-2.92q-2.05-1.62-4-3.06c-.62-.48-.85-.83-.68-1s.49-.21,1,0a28.16,28.16,0,0,1,5,3c1,.67,1.66,1,2,.86s.54-.82.68-2.16a19.91,19.91,0,0,0,.07-2.12V46.09c0-1.39,0-2.9,0-4.54S34,38.34,34,36.8c-1,.24-1.89.52-2.77.83s-1.65.59-2.27.83a7.61,7.61,0,0,1-3.1.75c-.81,0-1.2-.3-1.15-.82a2,2,0,0,1,.36-1.12,2.45,2.45,0,0,1,1.3-.54,7.77,7.77,0,0,0,1.94-.86A17,17,0,0,0,30,34.71c.67-.62,1.33-1.24,2-1.87s1.28-1.27,1.9-1.94c0-.82-.08-1.49-.1-2a6.85,6.85,0,0,0-.11-1.08,4.8,4.8,0,0,1-.22-1.44,2.34,2.34,0,0,1-.47.25l-.54.26C30.2,27.92,28.32,28,26.79,26.94Zm3.89,9.29a15.9,15.9,0,0,0,1.62-.4c.55-.17,1.11-.32,1.69-.47a7.65,7.65,0,0,1,0-1.26,6.71,6.71,0,0,0,0-1.19L32.33,34.5C31.8,35,31.25,35.6,30.68,36.23ZM38.6,24.78a13.87,13.87,0,0,0-1.62.36l-1.55.43a2.47,2.47,0,0,1,.25.94c0,.33,0,.67,0,1v1.23A32.23,32.23,0,0,0,38.6,24.78Zm4.1,19.8c-1.06-.39-1.39-.58-1-.58s1.06,0,2,.15a4.83,4.83,0,0,1,1.19.36c.45.19.91.4,1.36.64a8.74,8.74,0,0,1,1.26.8,3.74,3.74,0,0,1,.8.72,8.68,8.68,0,0,1,1.54,2.66,12,12,0,0,1,.54,2.59c.2,1.87-.2,2.82-1.18,2.85s-2.7-1.17-5.15-3.57q-1-1-.87-1.26c.1-.17.48,0,1.16.47,2,1.39,3.13,2,3.49,1.87s.25-1.22-.33-3.24a5.1,5.1,0,0,0-2-2.81A16.26,16.26,0,0,0,42.7,44.58Z"/>
<path d="M95.84,34.71c-.48,1.64-.87,3.14-1.16,4.5s-.52,2.67-.72,3.89-.33,2.4-.43,3.53-.17,2.29-.21,3.49a31.16,31.16,0,0,0,0,4.57c.12,1.32.25,2.44.4,3.35q.44,2.45-.15,2.67c-.38.14-.88-.36-1.51-1.52a14.48,14.48,0,0,1-1.37-3.67,12.08,12.08,0,0,1,0-4.17c.1-.82.18-1.82.26-3s.13-2.47.18-3.89.07-2.9.07-4.46,0-3.14-.07-4.72c0-1.15-.08-2.14-.08-2.95v-2a33.34,33.34,0,0,1-4.39,2.52c-1.25.58-2.61,1.13-4.1,1.66l-.87.21a79.72,79.72,0,0,1-1.33,10.08A55.86,55.86,0,0,1,77.76,54q-.57,1.44-1.11,1.44c-.36,0-.66-.74-.9-2.23A15.7,15.7,0,0,1,75.64,51a3.21,3.21,0,0,1,.68-1.84,7.65,7.65,0,0,0,1.05-2.3c.31-1,.66-2.42,1-4.25s.69-3.89.9-5.76a28.27,28.27,0,0,0,.18-5.11c0-.86,0-1.61-.07-2.23a9,9,0,0,0-.29-1.73,11,11,0,0,0-.54-1.55,11.88,11.88,0,0,0-.9-1.69,25.49,25.49,0,0,1-1.44-2.77A18.39,18.39,0,0,1,75.32,19q-.36-1.31,0-1.44c.27-.1.66.19,1.19.86a14.09,14.09,0,0,1,1,1.33q.48.69.9,1.26l.87-.36c.33-.14.69-.29,1.08-.43,1.68-.67,3.39-1.41,5.15-2.23a31.15,31.15,0,0,0,4.86-2.81,27.26,27.26,0,0,0,2.34-1.84,2.94,2.94,0,0,0,1-1.4,1.56,1.56,0,0,0-.29-1.26A9.09,9.09,0,0,0,92,9.15c-1-.86-1.33-1.41-1.12-1.65s.71-.17,1.48.21a28.77,28.77,0,0,1,2.92,1.8,14.39,14.39,0,0,1,2.34,2,2.21,2.21,0,0,1,.79,1.73c-.05.57-.53,1-1.44,1.15a10.73,10.73,0,0,0-1.19.32,6.26,6.26,0,0,0-1.22.58c-.46.26-1,.59-1.62,1l-2.38,1.44a39.76,39.76,0,0,1-5.65,2.92,30.2,30.2,0,0,1-5.58,1.83,17.36,17.36,0,0,1,2,4.72,19.22,19.22,0,0,1,.51,5.72q3.31-1.73,6.69-3.67c2.26-1.3,4.2-2.5,5.84-3.6a6.28,6.28,0,0,1,3.24-1c.28-1,.56-1.83.82-2.63s.52-1.52.76-2.19a10.8,10.8,0,0,1,.54-1.08c.17-.29.3-.45.4-.47s.13.11.1.4A6.56,6.56,0,0,1,99.87,20c-.15.52-.34,1.17-.58,1.94s-.48,1.63-.72,2.59a6.62,6.62,0,0,1,1.59.43c1,.53,1.33.92,1.11,1.16a1.79,1.79,0,0,1-1.33.36,8.81,8.81,0,0,0-1.94.21c-.39,1.3-.75,2.63-1.08,4S96.22,33.42,95.84,34.71ZM93.24,29a11.86,11.86,0,0,1,.11,1.19c0,.46,0,1,0,1.69a24.29,24.29,0,0,0,.21,4.07c.15.65.46.18.94-1.4.38-1.25.76-2.5,1.12-3.75s.73-2.44,1.11-3.6A29.7,29.7,0,0,0,93.24,29ZM131.33,55c.1.67,0,1.08-.14,1.22s-.84-.26-1.95-1.22c-.52-.43-1.24-1-2.16-1.69s-1.9-1.4-3-2.09-2.16-1.37-3.24-2-2-1.16-2.85-1.55q-2.24-1-3.81-1.65c-1.06-.43-2-.78-2.74-1.05a15.6,15.6,0,0,0-1.91-.54l-1.26-.21c-.14.38-.29.78-.43,1.19s-.31.82-.5,1.26A12,12,0,0,1,104.44,51a10.94,10.94,0,0,1-4.07,2.3c-.91.29-1.55.13-1.91-.47a3,3,0,0,1-.1-2.41,10.27,10.27,0,0,1,8-7.06q.8-2.58,1.44-5.58a45.31,45.31,0,0,0,.86-5.22,5.81,5.81,0,0,0,.15-1c-.2.19-.36.37-.51.54a2.76,2.76,0,0,1-.5.46c-1.3,1.49-2.17,2.21-2.63,2.16s-.83-.57-1.12-1.58a3,3,0,0,1-.21-1.37,1.26,1.26,0,0,1,.72-.93,2.44,2.44,0,0,0,1.08-1,18,18,0,0,0,1.29-2.55,28.73,28.73,0,0,0,1.3-3.93q.72-2.62,1.37-5.43c.43-1.87.8-3.63,1.11-5.26a30.3,30.3,0,0,0,.54-3.45,4.44,4.44,0,0,0-.39-2.13,4.18,4.18,0,0,0-1.15-1.58,1.63,1.63,0,0,0-1.55-.29c-.58.17-1.08.76-1.51,1.76-.34.68-.66,1-1,.87s-.34-.58-.1-1.44c.48-1.83,1.28-2.91,2.41-3.24a3.46,3.46,0,0,1,3.27.72,6.27,6.27,0,0,1,2.13,3,7.43,7.43,0,0,1,0,4.42c-.76,3-1.51,6-2.23,9.08a61.32,61.32,0,0,1-2.52,8.2c2-1.24,3.79-2.42,5.33-3.52s2.81-2,3.82-2.67a6.47,6.47,0,0,1,3.09-1,3.85,3.85,0,0,1,2.88.9,6.41,6.41,0,0,1,2.09,3.17,2.76,2.76,0,0,1-.43,2.52c-.39.43-.78.92-1.19,1.47s-.95,1.31-1.62,2.27a9.38,9.38,0,0,1-4.39,3.6,8.82,8.82,0,0,1-4.61.58c-1-.19-1.5-.46-1.48-.79s.59-.51,1.7-.51a8.13,8.13,0,0,0,4.1-1.33,12,12,0,0,0,3.89-3.92,7.16,7.16,0,0,0,1.4-3.46,2.15,2.15,0,0,0-2.77-2.16,8,8,0,0,0-2.59.94q-1,.57-2.85,1.83c-1.22.84-2.46,1.77-3.7,2.77a12.32,12.32,0,0,1-.08,1.23c0,.48-.12,1.13-.21,1.94q-.36,2.88-.9,5.4A46.53,46.53,0,0,1,108.72,43a9.08,9.08,0,0,1,1.73,0,14.73,14.73,0,0,1,2,.4,24.51,24.51,0,0,1,2.48.82c.94.36,2.05.83,3.35,1.41l1.8.83q1.16.54,2.52,1.29l2.81,1.59q1.44.83,2.73,1.62a9.48,9.48,0,0,1,2.41,2.08A4.26,4.26,0,0,1,131.33,55ZM101.88,50.7a11.45,11.45,0,0,0,1.55-1.37,11.27,11.27,0,0,0,1.69-2.66c.15-.39.3-.77.47-1.16a10.06,10.06,0,0,0,.47-1.29,5.9,5.9,0,0,0-2.7.86,10,10,0,0,0-2.27,2.16A7.41,7.41,0,0,0,100,49.33a2.16,2.16,0,0,0-.08,1.33.78.78,0,0,0,.72.51A2.13,2.13,0,0,0,101.88,50.7Z"/>
<path d="M184.47,16.21q2.66,2.73,2.81,4.25c.09,1-.48,2-1.73,2.95-1.06.77-2.28,1.64-3.67,2.63s-3,2-4.83,3.13c-1,.62-1.58.73-1.87.32s-.07-.87.65-1.4q2-1.44,3.71-2.84T183.32,22a2.86,2.86,0,0,0,1.08-2,6.76,6.76,0,0,0-1.23-3.06A11,11,0,0,1,182,14.77c-.67.19-1.33.41-2,.65l-1.91.72a2.61,2.61,0,0,1-1.76.29c-.41-.15-.66-.63-.76-1.44a1.75,1.75,0,0,1,.25-1.44,10.17,10.17,0,0,1,1.12-1,9.13,9.13,0,0,0,1.22-1.37,20.3,20.3,0,0,0,1.23-1.84c.38-.64.72-1.28,1-1.9A9.23,9.23,0,0,0,181,5.91c.48-1.82-.29-3-2.3-3.52q-1.87-.66-3.53,2.16-.44.72-.9,1.62a23.23,23.23,0,0,0-1,2.16c-.34.84-.73,1.84-1.19,3s-1,2.58-1.55,4.21c-.33,1-.65,1.79-.93,2.49s-.58,1.36-.87,2-.6,1.3-.93,2-.72,1.38-1.16,2.19c-.24.53-.5,1.17-.79,1.91s-.55,1.5-.79,2.27c-.34,1.15-.71,1.71-1.12,1.69s-.73-.76-1-2.2a17.17,17.17,0,0,1,0-5,2.62,2.62,0,0,0-.75-1.59,3.27,3.27,0,0,0-1.48-.79,5.33,5.33,0,0,0-1.84-.11,6.55,6.55,0,0,0-1.69.4,33.22,33.22,0,0,0-4.89,4c-.77.82-1.3,1.15-1.59,1s-.38-.77-.29-1.87a5.12,5.12,0,0,1,.65-2.27,3.32,3.32,0,0,1,1.59-1.19,17.66,17.66,0,0,0,3.52-2.38,44.58,44.58,0,0,0,5.12-5A2.32,2.32,0,0,0,162,11,7.33,7.33,0,0,0,160.13,8c-.57-.62-.73-1-.47-1.29s.83,0,1.7.86a23.1,23.1,0,0,1,2.41,2.48,5.42,5.42,0,0,1,1,1.84,2,2,0,0,1,0,1.37,3.27,3.27,0,0,1-.83,1.08c-.91.81-1.71,1.54-2.38,2.16s-1.44,1.29-2.3,2a6.16,6.16,0,0,1,3.35.18,2.52,2.52,0,0,1,1.69,1.55c.14.67.45,1,.93,1s1-.44,1.52-1.26q1.73-2.88,3.2-5.86t2.48-5.58a20.82,20.82,0,0,1,3-5.87A3.87,3.87,0,0,1,178.78,1a6.46,6.46,0,0,1,2.59.75,5.49,5.49,0,0,1,1.73,1.48,3.84,3.84,0,0,1,.76,1.84,3.21,3.21,0,0,1-.33,1.83C182.91,8,182.36,9,181.88,9.84s-1.11,1.81-1.88,2.91c1.25-.28,2.45-.54,3.6-.75s2.28-.42,3.39-.61c1.34-.2,2.46-.33,3.35-.4a6.25,6.25,0,0,1,2.55.32c1.11.39,1.69.75,1.77,1.08s-.35.56-1.26.65l-2.74.33-3.82.46a34,34,0,0,0-4.1.8,3.82,3.82,0,0,1,.76.61ZM152.36,38.1c.33-.82.67-1.23,1-1.23s.44.48.29,1.44a5.55,5.55,0,0,0,.43,2.63c.39,1,.94,2.17,1.66,3.57.19.38.37.73.54,1s.32.64.47,1h.07a47.46,47.46,0,0,1,.72-5.61,10,10,0,0,1,1.22-3.32,5.39,5.39,0,0,1,2.16-1.9,33.73,33.73,0,0,1,3.6-1.48c3-1,5.6-1.82,7.85-2.45V30.5c0-.41,0-.83.07-1.26a5.27,5.27,0,0,0-.75-3.49,6.11,6.11,0,0,0-2.77-1.62c-.72-.24-1-.53-1-.86s.66-.39,1.77-.15a18.94,18.94,0,0,1,2.7.76A3.85,3.85,0,0,1,174,25a3.5,3.5,0,0,1,.72,1.83,20.78,20.78,0,0,1,.07,3.1v.58a3.12,3.12,0,0,1-.07.64c1-.24,1.86-.44,2.7-.61s1.67-.32,2.48-.47a30.1,30.1,0,0,1,3.31-.21,13.65,13.65,0,0,1,2.85.29,14.77,14.77,0,0,1,2.84.9c1,.4,2.07.92,3.31,1.54q2.67,1.44,3.28,2.85a2,2,0,0,1-.4,2.41,5.41,5.41,0,0,0-.82,1.58c-.27.72-.59,1.8-1,3.24s-.82,3.18-1.33,4.79-1,3.15-1.55,4.61a39.83,39.83,0,0,1-1.65,4,11.27,11.27,0,0,1-1.73,2.7c-.67.82-1.28,1.22-1.84,1.22a1.65,1.65,0,0,1-1.4-.93c-.48-.72-.91-1.43-1.3-2.13s-.74-1.3-1.08-1.83a22,22,0,0,0-4-.25,41,41,0,0,0-4.93.39,41.4,41.4,0,0,0-10.66,2.59c.38,1.16.4,1.79,0,1.91s-.86-.23-1.48-1a16.94,16.94,0,0,1-2-3c-.48-1-1-2.18-1.65-3.67l-2.13-4.61c-.6-1.29-1.21-2.71-1.83-4.24A6.57,6.57,0,0,1,152.36,38.1Zm5.4,9.79c-.1,0-.15,0-.15-.07a.36.36,0,0,1,0,.18.12.12,0,0,0,0,.11c.67,1.39,1.31,2.73,1.91,4s1.19,2.59,1.76,3.89a27.32,27.32,0,0,1,4-1.41q2.67-.75,5.55-1.26c.14-1.39.27-2.76.39-4.1s.23-2.69.33-4c-.82.24-1.68.5-2.59.79l-2.7.86-2.49.79c-.77.24-1.41.46-1.94.65a4.86,4.86,0,0,1-1.95.22A4.39,4.39,0,0,1,157.76,47.89Zm.43-1.58a11.65,11.65,0,0,0,1.73-.26c.86-.16,1.9-.39,3.13-.68s2.58-.62,4.07-1l4.53-1.15c.1-1.49.19-3,.29-4.46s.19-3,.29-4.54c-.91.24-1.9.46-2.95.65l-3.68.65a16.55,16.55,0,0,0-3.31.93,5.69,5.69,0,0,0-2.3,1.77,8.69,8.69,0,0,0-1.48,3.13,30.17,30.17,0,0,0-.83,5Zm16.49-2a1.2,1.2,0,0,1-.4.11,2.31,2.31,0,0,0-.47.11c-.09,1.63-.23,3.17-.39,4.61s-.3,2.71-.4,3.81h.5a31.61,31.61,0,0,1,6-.25,9.67,9.67,0,0,1,3.42.68c.67.39,1,.77,1.08,1.16s-.22.6-.8.64q1.44,1.16,2.13.87a3.87,3.87,0,0,0,1.47-2c1-2.2,1.76-4.22,2.38-6s1.22-3.87,1.8-6.12a.59.59,0,0,0-.22-.08.5.5,0,0,1-.21-.07A9.11,9.11,0,0,0,188,42c-1.37.19-2.9.43-4.61.72s-3.37.6-5,.93S175.54,44.22,174.68,44.36Zm16.2-4.1a2.06,2.06,0,0,0,.5.36c.14-.48.29-1.06.43-1.73a4.64,4.64,0,0,0-.07-3.17,5.29,5.29,0,0,0-2.23-2.09,15.62,15.62,0,0,0-5.11-1.8,11.36,11.36,0,0,0-5,.44c-.92.24-1.74.46-2.49.68l-2.27.68c-.09,1.3-.19,2.72-.28,4.25S174.1,41,174,42.63l5.58-1.47L183.68,40a12,12,0,0,1,4.24-.68A6,6,0,0,1,190.88,40.26Z"/></g></g></svg>