<svg xmlns="http://www.w3.org/2000/svg" viewBox="0 0 169.83 32.76"><title>pingyin</title><g id="Layer_2" data-name="Layer 2">
<g id="Layer_1-2" data-name="Layer 1">
	<path d="M24.71,29.16a1.06,1.06,0,0,1-.59.94,2.15,2.15,0,0,1-1.17.37q-2.88,0-11.07-13a.38.38,0,0,0-.38.14c-.11.12-.65,1.06-1.64,2.83s-2.23,3.8-3.33,5.72a29,29,0,0,0-2.57,6,2.47,2.47,0,0,1-1.44.58Q1.57,32.76,0,31C.45,30.54,1.11,29.9,2,29a83.18,83.18,0,0,0,4.55-7.11,74.22,74.22,0,0,0,3.87-6.71q0-.68-4-6.37c-2.65-3.79-4-6-4-6.77,0-1,.52-1.48,1.57-1.48a6.8,6.8,0,0,1,2.39.76l.13.27A12.26,12.26,0,0,0,8.51,7.47q1.71,2.7,3.42,5.36,1.85-2.79,5.26-8.6A29.13,29.13,0,0,1,18.81,1a2.1,2.1,0,0,1,1.62-1,1,1,0,0,1,.83.45,1.82,1.82,0,0,1,.39,1L13.14,15.08a73.78,73.78,0,0,0,4.77,7.65q4.1,6,5.31,6a.69.69,0,0,0,.63-.4h.5A1.44,1.44,0,0,1,24.71,29.16Z"/>
	<path d="M46.12,14.27a41.59,41.59,0,0,1-.29,4.16,47.7,47.7,0,0,0-.29,4.79c0,.54.05,1.57.16,3.08s.15,2.61.15,3.27c0,1.32-.15,2.11-.44,2.38a1.42,1.42,0,0,1-.77.18,1.35,1.35,0,0,1-1.35-.85c-.12-.57-.24-1.13-.36-1.67a6.17,6.17,0,0,1-4.46,2.52,3.65,3.65,0,0,1-2.7-1,5.64,5.64,0,0,1-1.84-2.17,17.14,17.14,0,0,1-.63-5.74V13.37Q33,12,34.83,12q1.26,0,1.26,1.44c0,1.44-.05,3.31-.13,5.62-.09,2.94-.14,4.82-.14,5.63A7.06,7.06,0,0,0,36.54,28c.6,1.29,1.36,1.93,2.29,1.93,1.54,0,2.72-1,3.56-3.06a13.69,13.69,0,0,0,.9-5V15.89a3.06,3.06,0,0,0-.25-1,3.24,3.24,0,0,1-.25-1,3.13,3.13,0,0,1,.05-.5,2.1,2.1,0,0,1,1.26-.63C45.45,12.57,46.12,13.1,46.12,14.27Z"/>
	<path d="M95.85,29.16a1.06,1.06,0,0,1-.59.94,2.12,2.12,0,0,1-1.17.37q-2.88,0-11.06-13a.39.39,0,0,0-.39.14c-.1.12-.65,1.06-1.64,2.83s-2.22,3.8-3.33,5.72a29,29,0,0,0-2.57,6,2.45,2.45,0,0,1-1.43.58c-.63,0-1.48-.6-2.53-1.8.45-.42,1.11-1.06,2-1.93a80.44,80.44,0,0,0,4.55-7.11,74.22,74.22,0,0,0,3.87-6.71q0-.68-4-6.37t-4-6.77c0-1,.52-1.48,1.58-1.48a6.83,6.83,0,0,1,2.38.76l.13.27a12.37,12.37,0,0,0,1.94,5.85q1.71,2.7,3.42,5.36,1.84-2.79,5.26-8.6A27.84,27.84,0,0,1,90,1a2.07,2.07,0,0,1,1.62-1,1,1,0,0,1,.83.45,1.89,1.89,0,0,1,.38,1l-8.5,13.68a71.62,71.62,0,0,0,4.76,7.65q4.1,6,5.32,6a.71.71,0,0,0,.63-.4h.49A1.38,1.38,0,0,1,95.85,29.16Z"/>
	<path d="M107.64,13.5a12,12,0,0,1-.38,2.43,11.47,11.47,0,0,0-.39,2.43v10a11.32,11.32,0,0,0,.45,2.7.54.54,0,0,1-.49.36c-1.47,0-2.21-.71-2.21-2.12V12.74a2.4,2.4,0,0,1,1.13-.32,2.36,2.36,0,0,1,1.12.32C107.38,13,107.64,13.2,107.64,13.5Zm.85-6.75q0,1.53-1.44,1.53a2.33,2.33,0,0,1-1.57-.63,1.88,1.88,0,0,1-.72-1.44,1.35,1.35,0,0,1,1.53-1.53,2.24,2.24,0,0,1,1.55.59A1.88,1.88,0,0,1,108.49,6.75Z"/>
	<path d="M132.21,31.32a.79.79,0,0,1-.72.5,3.84,3.84,0,0,1-1.53-.63V28.44q0-14.94-3.72-14.94c-.78,0-1.61.57-2.51,1.71a16.48,16.48,0,0,0-3.4,10.67,17.38,17.38,0,0,0,.25,2.49,18.87,18.87,0,0,1,.24,2.5c0,.45-.3.68-.91.68-1.16,0-1.74-.95-1.74-2.84V18.5c0-.27,0-.66,0-1.17s.05-.9.05-1.17a12.62,12.62,0,0,0-.16-1.71,14.58,14.58,0,0,1-.16-1.67c0-.24.19-.52.57-.83a1.55,1.55,0,0,1,.87-.47,1.4,1.4,0,0,1,1.08.62c-.09,2-.13,3.1-.13,3.43s0,.88,0,1.3c.27-.09.63-.58,1.08-1.48A10.86,10.86,0,0,1,122.89,13a3.21,3.21,0,0,1,2.48-1.26,5.13,5.13,0,0,1,1.62.4,6,6,0,0,1,3.46,3,21.4,21.4,0,0,1,1.76,9.41Z"/>
	<path d="M155.92,2.48a16.86,16.86,0,0,1-.27,2.66c-.21,1.41-.34,2.3-.4,2.66q-.13,1.4-.45,9.28c-.18,4.81-.27,7.46-.27,8q0,4.83.85,6.81a.93.93,0,0,1-.81.49,1.75,1.75,0,0,1-1-.44,2.08,2.08,0,0,1-.7-.9,21,21,0,0,0-.27-2.75q-2.66,3.38-5.08,3.38a5.2,5.2,0,0,1-4.5-2.21,8.4,8.4,0,0,1-1.35-5,24.08,24.08,0,0,1,1.39-7.84q1.8-5.3,4.77-5.3a4.38,4.38,0,0,1,2.57.94c.18.12.88.75,2.11,1.89A121,121,0,0,0,153,.68a1.17,1.17,0,0,1,.86-.32,2,2,0,0,1,1.48.63A2,2,0,0,1,155.92,2.48Zm-3.37,16.64a7,7,0,0,0-.9-3.55,3.28,3.28,0,0,0-2.93-1.89q-2.25,0-3.6,4.59A22,22,0,0,0,144,24.8a8.49,8.49,0,0,0,.63,3.42,2.74,2.74,0,0,0,2.57,1.88c1.86,0,3.27-1.43,4.23-4.31A20.15,20.15,0,0,0,152.55,19.12Z"/>
	<path d="M169,13.5a11.3,11.3,0,0,1-.38,2.43,12,12,0,0,0-.38,2.43v10a11.32,11.32,0,0,0,.45,2.7.56.56,0,0,1-.5.36c-1.47,0-2.2-.71-2.2-2.12V12.74a2.36,2.36,0,0,1,1.12-.32,2.4,2.4,0,0,1,1.13.32C168.72,13,169,13.2,169,13.5Zm.86-6.75q0,1.53-1.44,1.53a2.35,2.35,0,0,1-1.58-.63,1.88,1.88,0,0,1-.72-1.44,1.35,1.35,0,0,1,1.53-1.53,2.28,2.28,0,0,1,1.56.59A1.91,1.91,0,0,1,169.83,6.75Z"/></g></g></svg>