<svg xmlns="http://www.w3.org/2000/svg" xmlns:xlink="http://www.w3.org/1999/xlink" viewBox="0 0 744.32 398.01"><defs><linearGradient id="linear-gradient" x1="344.95" y1="159.51" x2="384.61" y2="159.51" gradientUnits="userSpaceOnUse"><stop offset="0" stop-color="#f89e71"/><stop offset="1" stop-color="#f16b90"/></linearGradient><linearGradient id="linear-gradient-2" x1="404.45" y1="159.52" x2="444.11" y2="159.52" gradientUnits="userSpaceOnUse"><stop offset="0" stop-color="#bc79b3"/><stop offset="1" stop-color="#7379ba"/></linearGradient><linearGradient id="linear-gradient-3" x1="463.95" y1="159.43" x2="503.61" y2="159.43" gradientUnits="userSpaceOnUse"><stop offset="0" stop-color="#69cef4"/><stop offset="1" stop-color="#7379ba"/></linearGradient></defs><title>analysis</title><g id="Layer_2" data-name="Layer 2"><g id="Layer_1-2" data-name="Layer 1"><rect width="744.32" height="397.36" style="fill:none"/><g id="Workspace5"><rect x="538.31" y="27.85" width="34.5" height="34.5" transform="translate(5.44 134.78) rotate(-13.9)" style="fill:#e9ebf3"/><path d="M578.26,58.79l-36.4,9-9-36.4,36.4-9Zm-34.21,5.38,30.58-7.57L567.06,26l-30.58,7.56Z" style="fill:#cdd0e0"/><rect x="540.95" y="49.53" width="34.5" height="12.5" transform="translate(2.95 135.73) rotate(-13.9)" style="fill:#fff"/><path d="M578.26,58.79l-36.4,9-3.72-15,36.4-9Zm-34.21,5.38,30.58-7.57-2.29-9.22L541.77,55Z" style="fill:#cdd0e0"/><rect x="597.17" y="27.37" width="34.5" height="34.5" style="fill:#e9ebf3"/><path d="M633.17,63.37h-37.5V25.87h37.5Zm-34.5-3h31.5V28.87h-31.5Z" style="fill:#cdd0e0"/><rect x="597.17" y="49.37" width="34.5" height="12.5" style="fill:#fff"/><path d="M633.17,63.37h-37.5V47.87h37.5Zm-34.5-3h31.5v-9.5h-31.5Z" style="fill:#cdd0e0"/><rect x="522.13" y="162.37" width="136.49" height="154.45" style="fill:#daddea"/><path d="M660.12,318.33H520.63V160.87H660.12Zm-136.49-3H657.12V163.87H523.63Z" style="fill:#cdd0e0"/><rect x="540.26" y="177.82" width="100.21" height="123.56" style="fill:#fff"/><path d="M642,302.88H538.76V176.32H642Zm-100.22-3H639V179.32H541.76Z" style="fill:#cdd0e0"/><rect x="550.29" y="190.18" width="80.17" height="98.85" style="fill:#e9ebf3"/><path d="M590.43,268.59l.36-.75,25-32.7-.15-.23.1-.14h-.2l-10-14.8-15.36-2.21L575.28,220l-10,14.8h-.08l.05,0-.22.32,25.08,32.7Zm-10.72-46.54,7.24-.88L578.58,231Zm10.6-.2,11,12.92h-22Zm12.07,9.55-8.68-10.2,7.5.88Zm-.31,6.37-11.64,24-11.64-24Zm-4.45,16,7.79-16h4.28Zm14.25-19h-6l-1.39-11ZM576.5,223.51l-1.43,11.26h-6.2Zm-5.32,14.26h4.28l7.78,16Z" style="fill:#fff"/><path d="M705.12,276.33a46.76,46.76,0,0,0-1.41-11.42h-90.6a46.74,46.74,0,0,0,22,51.9H681.7A46.67,46.67,0,0,0,705.12,276.33Z" style="fill:#fff"/><path d="M704.93,280.34c.11-1.32.19-2.66.19-4a46.76,46.76,0,0,0-1.41-11.42h-90.6a46.76,46.76,0,0,0-1.41,11.42c0,1.41.09,2.8.21,4.18C636.65,280.26,674.35,280.21,704.93,280.34Z" style="fill:#daddea"/><path d="M610.54,282l-.12-1.38c-.15-1.65-.22-3-.22-4.32a48.24,48.24,0,0,1,1.46-11.78l.28-1.14h92.94l.29,1.14a48.72,48.72,0,0,1,1.45,11.78c0,1.26-.06,2.58-.2,4.14l-.11,1.38h-1.39c-10.65,0-22.53-.07-34.35-.07-22.39,0-43.22.09-58.65.24Zm3.76-15.62a45.42,45.42,0,0,0-1.1,9.92c0,.83,0,1.7.1,2.67,15.28-.15,35.54-.23,57.27-.23,11.31,0,22.68,0,33,.07.05-.9.08-1.72.08-2.51a46,46,0,0,0-1.09-9.92Z" style="fill:#cdd0e0"/><path d="M682.1,318.31H634.72l-.35-.2a48.21,48.21,0,0,1-22.71-53.56l.28-1.14h92.94l.29,1.14a48.26,48.26,0,0,1-22.72,53.56Zm-46.57-3H681.3a45.37,45.37,0,0,0,22.32-39,46,46,0,0,0-1.09-9.92H614.3a45.2,45.2,0,0,0,21.23,48.9Z" style="fill:#cdd0e0"/><polygon points="117.56 396.51 99.56 396.51 96.56 330.51 120.56 330.51 117.56 396.51" style="fill:#fff"/><path d="M119,398H98.13L95,329h27.14Zm-18-3h15.14L119,332H98.13Z" style="fill:#cdd0e0"/><polygon points="96.56 333.51 97.74 359.51 119.38 359.51 120.56 333.51 96.56 333.51" style="fill:#cdd0e0"/><polygon points="644.56 396.51 626.56 396.51 623.56 330.51 647.56 330.51 644.56 396.51" style="fill:#fff"/><path d="M646,398H625.13L622,329h27.14Zm-18-3h15.14L646,332H625.13Z" style="fill:#cdd0e0"/><polygon points="623.56 333.51 624.74 359.51 646.38 359.51 647.56 333.51 623.56 333.51" style="fill:#cdd0e0"/><rect x="2.03" y="317.51" width="740" height="26" style="fill:#fff"/><path d="M743.53,345H.53V316h743Zm-740-3h737V319H3.53Z" style="fill:#cdd0e0"/><rect x="211.03" y="98.51" width="322" height="208" rx="20" ry="20" style="fill:#271f3e"/><path d="M513,308H231a21.52,21.52,0,0,1-21.5-21.5v-168A21.52,21.52,0,0,1,231,97H513a21.53,21.53,0,0,1,21.5,21.5v168A21.52,21.52,0,0,1,513,308ZM231,100a18.52,18.52,0,0,0-18.5,18.5v168A18.52,18.52,0,0,0,231,305H513a18.52,18.52,0,0,0,18.5-18.5v-168A18.52,18.52,0,0,0,513,100Z" style="fill:#cdd0e0"/><rect x="225.03" y="117.85" width="294" height="163.67" style="fill:#daddea"/><path d="M520.53,283h-297V116.35h297Zm-294-3h291V119.35h-291Z" style="fill:#cdd0e0"/><rect x="225.03" y="117.85" width="294" height="82.83" style="fill:#fff"/><rect x="225.03" y="117.85" width="102" height="163.67" style="fill:#5e4b8b"/><polygon points="574.78 311.51 555.78 316.51 187.78 316.51 168.78 311.51 168.78 299.51 574.78 299.51 574.78 311.51" style="fill:#fff"/><path d="M556,318,187.4,318l-20.12-5.29V298h409v14.66Zm-368-3H555.59l17.69-4.65V301h-403v9.35Z" style="fill:#cdd0e0"/><polygon points="169.78 310.51 187.78 316.51 555.78 316.51 575.28 310.51 169.78 310.51" style="fill:#cdd0e0"/><path d="M405.22,301.68c0,1.52-.62,2.75-1.38,2.75H340.21c-.75,0-1.37-1.23-1.37-2.75h0c0-1.52.62-2.75,1.37-2.75h63.63c.76,0,1.38,1.23,1.38,2.75Z" style="fill:#cdd0e0"/><path d="M520.53,283h-297V116.35h297Zm-294-3h291V119.35h-291Z" style="fill:#cdd0e0"/><rect x="241.11" y="136.51" width="70" height="6" style="fill:#cdd0e0"/><rect x="241.11" y="146.51" width="35" height="6" style="fill:#cdd0e0"/><rect x="340.61" y="211.51" width="164.5" height="6" style="fill:#fff"/><rect x="340.61" y="221.51" width="131.5" height="6" style="fill:#fff"/><rect x="340.61" y="231.51" width="87.5" height="6" style="fill:#fff"/><rect x="340.61" y="241.51" width="131.5" height="6" style="fill:#fff"/><path d="M370.17,175.89l-1.44-2.09a15.13,15.13,0,0,1-4,.55,14.86,14.86,0,1,1,12.31-6.58c.63.8,1,1.27.89,1.12l2.24,3a19.94,19.94,0,1,0-8.49,6.14Z" style="fill:url(#linear-gradient)"/><path d="M439.05,158.3c0,.4.06.8.06,1.21a14.83,14.83,0,1,1-15.24-14.81c0-1.53,0-3.2-.05-5a19.83,19.83,0,1,0,20.29,19.81c0-.38,0-.75,0-1.12C442.4,158.28,440.72,158.26,439.05,158.3Z" style="fill:url(#linear-gradient-2)"/><path d="M483.78,139.68a19.83,19.83,0,0,0-2.36,39.51q0-2.73.06-5a14.83,14.83,0,1,1,5.88-.26c0,1.21,0,2.42,0,3.63,0,.49,0,1,0,1.48a19.83,19.83,0,0,0-3.63-39.32Z" style="fill:url(#linear-gradient-3)"/><path d="M641.32,199.49l.27,0h3.87a2,2,0,0,0-.36,0,2.58,2.58,0,0,1,0,4.92,1.37,1.37,0,0,0,.36,0h-6.55a2.53,2.53,0,0,0,0,5h5.91l.26,0a4.79,4.79,0,0,1,4,5c0,2.75-2,5-4.35,5H632.25c-2.4,0-4.35,2.25-4.35,5a4.79,4.79,0,0,0,4,5l.27,0h12.57a2.52,2.52,0,0,1,0,5h-5.36a2.52,2.52,0,0,0,0,5h10.2a2.53,2.53,0,0,1,0,5h-1.92a2.53,2.53,0,0,0,0,5H669.3c2,0,3-1.12,3-2.5a2.37,2.37,0,0,0-2.17-2.5h-5.69a2.52,2.52,0,0,1,0-5h18c2.4,0,4.35-2.25,4.35-5s-1.95-5-4.35-5H668.68c.12,0-.36,0-.45,0a2.58,2.58,0,0,1,0-4.92,2.32,2.32,0,0,1,.37,0h8.76a2.53,2.53,0,0,0,0-5h-5.08a2.53,2.53,0,0,1,0-5h7.25c2.4,0,4.35-2.25,4.35-5s-2-5-4.35-5H667.21a2.52,2.52,0,0,1,0-5h4.35c2.39,0,4.35-2.25,4.35-5a4.79,4.79,0,0,0-4-5l-.27,0h-30c-2.39,0-4.35,2.25-4.35,5A4.79,4.79,0,0,0,641.32,199.49Z" style="fill:#fff"/><rect x="53.06" y="210.63" width="12" height="97.5" style="fill:#271f3e"/><path d="M66.56,309.63h-15V209.13h15Zm-12-3h9v-94.5h-9Z" style="fill:#cdd0e0"/><path d="M113.81,308.13a5.25,5.25,0,0,1-5.25,5.25h-78a5.25,5.25,0,0,1-5.25-5.25h0a5.25,5.25,0,0,1,5.25-5.25h78a5.25,5.25,0,0,1,5.25,5.25Z" style="fill:#271f3e"/><path d="M108.56,314.88h-78a6.75,6.75,0,0,1,0-13.5h78a6.75,6.75,0,0,1,0,13.5Zm-78-10.5a3.75,3.75,0,0,0,0,7.5h78a3.75,3.75,0,0,0,0-7.5Z" style="fill:#cdd0e0"/><rect x="172.04" y="26.39" width="49.52" height="5" transform="translate(65.38 178.2) rotate(-57)" style="fill:#cdd0e0"/><rect x="-15.32" y="149.4" width="260.99" height="13.5" transform="translate(-78.41 169.44) rotate(-57.52)" style="fill:#271f3e"/><path d="M51.24,271.93l-13.92-8.86L179.1,40.38,193,49.24Zm-9.78-9.78,8.86,5.63L188.87,50.16,180,44.52Z" style="fill:#cdd0e0"/><path d="M317.54,13.39a9.27,9.27,0,0,1-9.28,9.28H211.33a9.28,9.28,0,0,1-9.28-9.28h0a9.29,9.29,0,0,1,9.28-9.28h96.93a9.28,9.28,0,0,1,9.28,9.28Z" style="fill:#271f3e"/><path d="M308.26,24.17H211.33a10.78,10.78,0,1,1,0-21.56h96.93a10.78,10.78,0,1,1,0,21.56ZM211.33,5.61a7.78,7.78,0,0,0,0,15.56h96.93a7.78,7.78,0,1,0,0-15.56Z" style="fill:#cdd0e0"/><line x1="243.07" y1="217.27" x2="302.67" y2="217.27" style="fill:none;stroke:#e3e3c1;stroke-miterlimit:10"/><line x1="243.07" y1="217.27" x2="243.07" y2="215.9" style="fill:none;stroke:#e3e3c1;stroke-miterlimit:10"/><line x1="262.94" y1="217.27" x2="262.94" y2="215.9" style="fill:none;stroke:#e3e3c1;stroke-miterlimit:10"/><line x1="282.8" y1="217.27" x2="282.8" y2="215.9" style="fill:none;stroke:#e3e3c1;stroke-miterlimit:10"/><line x1="302.67" y1="217.27" x2="302.67" y2="215.9" style="fill:none;stroke:#e3e3c1;stroke-miterlimit:10"/><text transform="translate(240.71 218.32)" style="font-size:2.79353928565979px;fill:#e6e6c8;font-family:MyriadPro-Regular, Myriad Pro">0</text><text transform="translate(240.71 209.19)" style="font-size:2.79353928565979px;fill:#e6e6c8;font-family:MyriadPro-Regular, Myriad Pro">5</text><text transform="translate(239.28 200.05)" style="font-size:2.79353928565979px;fill:#e6e6c8;font-family:MyriadPro-Regular, Myriad Pro">10</text><text transform="translate(239.28 190.92)" style="font-size:2.79353928565979px;fill:#e6e6c8;font-family:MyriadPro-Regular, Myriad Pro">15</text><text transform="translate(239.28 181.78)" style="font-size:2.79353928565979px;fill:#e6e6c8;font-family:MyriadPro-Regular, Myriad Pro">20</text><text transform="translate(239.28 172.65)" style="font-size:2.79353928565979px;fill:#e6e6c8;font-family:MyriadPro-Regular, Myriad Pro">25</text><text transform="translate(239.28 163.51)" style="font-size:2.79353928565979px;fill:#e6e6c8;font-family:MyriadPro-Regular, Myriad Pro">30</text><line x1="243.07" y1="217.27" x2="243.07" y2="162.46" style="fill:none;stroke:#e3e3c1;stroke-miterlimit:10"/><line x1="243.07" y1="217.27" x2="244.56" y2="217.27" style="fill:none;stroke:#e3e3c1;stroke-miterlimit:10"/><line x1="243.07" y1="208.14" x2="244.56" y2="208.14" style="fill:none;stroke:#e3e3c1;stroke-miterlimit:10"/><line x1="243.07" y1="199" x2="244.56" y2="199" style="fill:none;stroke:#e3e3c1;stroke-miterlimit:10"/><line x1="243.07" y1="189.87" x2="244.56" y2="189.87" style="fill:none;stroke:#e3e3c1;stroke-miterlimit:10"/><line x1="243.07" y1="180.73" x2="244.56" y2="180.73" style="fill:none;stroke:#e3e3c1;stroke-miterlimit:10"/><line x1="243.07" y1="171.6" x2="244.56" y2="171.6" style="fill:none;stroke:#e3e3c1;stroke-miterlimit:10"/><line x1="243.07" y1="162.46" x2="244.56" y2="162.46" style="fill:none;stroke:#e3e3c1;stroke-miterlimit:10"/><line x1="272.87" y1="195.35" x2="253.01" y2="215.45" style="fill:none;stroke:#e3e3c1;stroke-linecap:round;stroke-miterlimit:10;stroke-width:2px"/><line x1="292.74" y1="189.87" x2="272.87" y2="195.35" style="fill:none;stroke:#e3e3c1;stroke-linecap:round;stroke-miterlimit:10;stroke-width:2px"/><line x1="272.87" y1="211.79" x2="253.01" y2="213.62" style="fill:none;stroke:#925f61;stroke-linecap:round;stroke-miterlimit:10;stroke-width:2px"/><line x1="292.74" y1="186.21" x2="272.87" y2="211.79" style="fill:none;stroke:#925f61;stroke-linecap:round;stroke-miterlimit:10;stroke-width:2px"/><line x1="272.87" y1="199" x2="253.01" y2="213.62" style="fill:none;stroke:#dea7a9;stroke-linecap:round;stroke-miterlimit:10;stroke-width:2px"/><line x1="292.74" y1="167.94" x2="272.87" y2="199" style="fill:none;stroke:#dea7a9;stroke-linecap:round;stroke-miterlimit:10;stroke-width:2px"/></g></g></g></svg>