<svg xmlns="http://www.w3.org/2000/svg" xmlns:xlink="http://www.w3.org/1999/xlink" viewBox="0 0 744.32 397.36"><defs><linearGradient id="linear-gradient" x1="591.63" y1="302.65" x2="726.01" y2="302.65" gradientUnits="userSpaceOnUse"><stop offset="0" stop-color="#f16b90"/><stop offset="1" stop-color="#f89e71"/></linearGradient><linearGradient id="linear-gradient-2" x1="604" y1="283.83" x2="713.65" y2="283.83" gradientUnits="userSpaceOnUse"><stop offset="0" stop-color="#bc79b3"/><stop offset="1" stop-color="#7379ba"/></linearGradient><linearGradient id="linear-gradient-3" x1="597.55" y1="267.17" x2="720.1" y2="267.17" gradientUnits="userSpaceOnUse"><stop offset="0" stop-color="#69cef4"/><stop offset="1" stop-color="#7379ba"/></linearGradient><linearGradient id="linear-gradient-4" x1="257.5" y1="312.06" x2="486.33" y2="83.22" gradientUnits="userSpaceOnUse"><stop offset="0" stop-color="#f89e71"/><stop offset="1" stop-color="#f16b90"/></linearGradient></defs><title>visual</title><g id="Layer_2" data-name="Layer 2"><g id="Layer_1-2" data-name="Layer 1"><rect width="744.32" height="397.36" style="fill:none"/><g id="Workspace4"><rect x="610.14" y="50.62" width="34.5" height="34.5" transform="translate(-3.45 51.5) rotate(-4.69)" style="fill:#271f3e"/><path d="M647.61,85l-37.37,3.06-3.07-37.37,37.38-3.07ZM613,84.86l31.39-2.58L641.8,50.89l-31.39,2.57Z" style="fill:#cdd0e0"/><rect x="611.04" y="72.59" width="34.5" height="12.5" transform="translate(-4.34 51.61) rotate(-4.69)" style="fill:#fff"/><path d="M647.61,85l-37.37,3.06L609,72.64l37.37-3.06ZM613,84.86l31.39-2.58-.77-9.47-31.39,2.58Z" style="fill:#cdd0e0"/><rect x="669.01" y="50.15" width="34.5" height="34.5" style="fill:#5e4b8b"/><path d="M705,86.15H667.51V48.65H705Zm-34.49-3H702V51.65H670.51Z" style="fill:#cdd0e0"/><rect x="669.01" y="72.15" width="34.5" height="12.5" style="fill:#fff"/><path d="M705,86.15H667.51V70.65H705Zm-34.49-3H702v-9.5H670.51Z" style="fill:#cdd0e0"/><rect x="610.14" y="104.62" width="34.5" height="34.5" transform="translate(467.02 740.54) rotate(-86.46)" style="fill:#7379ba"/><path d="M645,141.74l-37.43-2.32L609.84,102l37.42,2.31Zm-34.25-5.13,31.44,1.95,1.94-31.44-31.43-1.94Z" style="fill:#cdd0e0"/><rect x="620.46" y="115.6" width="12.5" height="34.5" transform="translate(455.42 750.16) rotate(-86.46)" style="fill:#fff"/><path d="M645,141.74l-37.43-2.32,1-15.46,37.42,2.31Zm-34.25-5.13,31.44,1.95.58-9.48-31.43-1.94Z" style="fill:#cdd0e0"/><rect x="669.08" y="161.15" width="34.5" height="34.5" transform="translate(415.26 833.67) rotate(-82.1)" style="fill:#f89e71"/><path d="M702.32,199.54l-37.14-5.15,5.15-37.14,37.14,5.15Zm-33.76-7.71,31.2,4.33,4.33-31.2-31.2-4.33Z" style="fill:#cdd0e0"/><rect x="678.43" y="173.03" width="12.5" height="34.5" transform="translate(402.06 842.29) rotate(-82.1)" style="fill:#fff"/><path d="M702.18,200.53,665,195.38,667.17,180l37.14,5.15Zm-33.76-7.71,31.2,4.33,1.31-9.41-31.2-4.33Z" style="fill:#cdd0e0"/><rect x="610.14" y="158.12" width="34.5" height="34.5" style="fill:#f16b90"/><path d="M646.14,194.12h-37.5v-37.5h37.5Zm-34.5-3h31.5v-31.5h-31.5Z" style="fill:#cdd0e0"/><rect x="610.14" y="181.12" width="34.5" height="12.5" style="fill:#fff"/><path d="M646.14,195.12h-37.5v-15.5h37.5Zm-34.5-3h31.5v-9.5h-31.5Z" style="fill:#cdd0e0"/><rect x="668.96" y="102.63" width="34.5" height="34.5" transform="translate(-8.62 70.22) rotate(-5.82)" style="fill:#bc79b3"/><path d="M706.76,136.63l-37.31,3.8-3.8-37.31L703,99.32Zm-34.63.51L703.47,134l-3.19-31.34-31.34,3.19Z" style="fill:#cdd0e0"/><rect x="670.17" y="125.56" width="34.5" height="12.5" transform="translate(-9.82 70.4) rotate(-5.82)" style="fill:#fff"/><path d="M706.86,137.62l-37.3,3.8L668,126l37.31-3.81Zm-34.62.52,31.33-3.2-1-9.45-31.34,3.2Z" style="fill:#cdd0e0"/><rect x="591.63" y="291.36" width="134.38" height="22.58" style="fill:url(#linear-gradient)"/><path d="M727.51,315.44H590.13V289.86H727.51Zm-134.38-3H724.51V292.86H593.13Z" style="fill:#cdd0e0"/><rect x="604" y="276.31" width="109.65" height="15.05" style="fill:url(#linear-gradient-2)"/><path d="M715.15,292.86H602.5V274.81H715.15Zm-109.65-3H712.15V277.81H605.5Z" style="fill:#cdd0e0"/><rect x="604" y="242.98" width="109.65" height="15.05" style="fill:#271f3e"/><path d="M715.15,259.53H602.5v-18H715.15Zm-109.65-3H712.15v-12H605.5Z" style="fill:#cdd0e0"/><rect x="597.55" y="258.44" width="122.55" height="17.47" style="fill:url(#linear-gradient-3)"/><path d="M721.6,277.4H596.05V256.94H721.6Zm-122.55-3H718.6V259.94H599.05Z" style="fill:#cdd0e0"/><polygon points="117.56 393.82 99.56 393.82 96.56 327.82 120.56 327.82 117.56 393.82" style="fill:#fff"/><path d="M119,395.32H98.13l-3.14-69h27.14Zm-18-3h15.14l2.86-63H98.13Z" style="fill:#cdd0e0"/><polygon points="96.56 330.82 97.74 356.82 119.38 356.82 120.56 330.82 96.56 330.82" style="fill:#cdd0e0"/><polygon points="644.56 393.82 626.56 393.82 623.56 327.82 647.56 327.82 644.56 393.82" style="fill:#fff"/><path d="M646,395.32H625.13l-3.14-69h27.14Zm-18-3h15.14l2.86-63H625.13Z" style="fill:#cdd0e0"/><polygon points="623.56 330.82 624.74 356.82 646.38 356.82 647.56 330.82 623.56 330.82" style="fill:#cdd0e0"/><rect x="2.03" y="314.82" width="740" height="26" style="fill:#fff"/><path d="M743.53,342.32H.53v-29h743Zm-740-3h737v-23H3.53Z" style="fill:#cdd0e0"/><rect x="211.03" y="95.82" width="322" height="208" rx="20" ry="20" style="fill:#271f3e"/><path d="M513,305.32H231a21.52,21.52,0,0,1-21.5-21.5v-168A21.52,21.52,0,0,1,231,94.32H513a21.53,21.53,0,0,1,21.5,21.5v168A21.52,21.52,0,0,1,513,305.32Zm-282-208a18.52,18.52,0,0,0-18.5,18.5v168a18.52,18.52,0,0,0,18.5,18.5H513a18.52,18.52,0,0,0,18.5-18.5v-168A18.52,18.52,0,0,0,513,97.32Z" style="fill:#cdd0e0"/><rect x="224.91" y="115.81" width="294" height="163.67" style="fill:url(#linear-gradient-4)"/><path d="M520.41,281h-297V114.31h297Zm-294-3h291V117.31h-291Z" style="fill:#cdd0e0"/><rect x="296.63" y="178.92" width="79" height="79" style="fill:#271f3e"/><path d="M377.13,259.42h-82v-82h82Zm-79-3h76v-76h-76Z" style="fill:#cdd0e0"/><rect x="366.67" y="138.28" width="79" height="79" style="fill:#fff"/><path d="M447.17,218.78h-82v-82h82Zm-79-3h76v-76h-76Z" style="fill:#cdd0e0"/><path d="M394,187.49l-2.48,8.95h-8.13L394,161.57H404.3l10.86,34.87h-8.53l-2.69-8.95Zm8.85-5.9-2.17-7.4c-.63-2.07-1.25-4.65-1.76-6.72h-.11c-.52,2.07-1,4.71-1.6,6.72l-2.07,7.4Z" style="fill:#271f3e"/><path d="M427.33,164.1a3.92,3.92,0,0,1-4.24,3.94,3.94,3.94,0,1,1,4.24-3.94Zm-8.12,32.34v-25.3h7.86v25.3Z" style="fill:#271f3e"/><rect x="437.67" y="133.28" width="14" height="14" style="fill:#fff"/><path d="M453.17,148.78h-17v-17h17Zm-14-3h11v-11h-11Z" style="fill:#cdd0e0"/><path d="M316.11,203a58.41,58.41,0,0,1,9.59-.65c4.38,0,7.5.84,9.6,2.51a9.06,9.06,0,0,1,3.35,7.27,9.73,9.73,0,0,1-2.89,7.45c-2.42,2.24-6,3.31-10.2,3.31a12.18,12.18,0,0,1-2.42-.18V234h-7Zm7,14.26a10.66,10.66,0,0,0,2.38.18c3.77,0,6.1-1.91,6.1-5.08,0-2.88-2-4.61-5.59-4.61a12.69,12.69,0,0,0-2.89.23Z" style="fill:#cdd0e0"/><path d="M341.91,227.85a13.9,13.9,0,0,0,6.1,1.68c2.15,0,3-.7,3-1.87s-.7-1.77-3.31-2.65c-4.75-1.59-6.56-4.15-6.52-6.85,0-4.29,3.64-7.5,9.27-7.5a15,15,0,0,1,6.39,1.35l-1.22,4.89a11.3,11.3,0,0,0-4.93-1.3c-1.73,0-2.71.7-2.71,1.82s.89,1.67,3.68,2.65c4.34,1.49,6.11,3.73,6.15,7,0,4.29-3.3,7.41-9.83,7.41a16.14,16.14,0,0,1-7.36-1.63Z" style="fill:#cdd0e0"/><rect x="41.12" y="177.26" width="22.58" height="134.38" style="fill:#f2f4f9"/><path d="M65.2,313.14H39.62V175.76H65.2Zm-22.58-3H62.2V178.76H42.62Z" style="fill:#cdd0e0"/><rect x="63.7" y="201.98" width="15.05" height="109.65" style="fill:#e1e4ee"/><path d="M80.25,313.14h-18V200.48h18Zm-15-3h12V203.48h-12Z" style="fill:#cdd0e0"/><rect x="97.02" y="201.98" width="15.05" height="109.65" style="fill:#fff"/><path d="M113.58,313.14H95.52V200.48h18.06Zm-15.06-3h12.06V203.48H98.52Z" style="fill:#cdd0e0"/><rect x="79.15" y="189.08" width="17.47" height="122.55" style="fill:#e9ebf3"/><path d="M98.12,313.14H77.65V187.58H98.12Zm-17.47-3H95.12V190.58H80.65Z" style="fill:#cdd0e0"/><rect x="124.3" y="177.26" width="17.47" height="134.38" transform="matrix(0.97, -0.26, 0.26, 0.97, -59.13, 43.14)" style="fill:#f2f4f9"/><path d="M141.07,313.43,105.25,180.8,125,175.46l35.82,132.63ZM108.93,182.91l34.25,126.84,14-3.77L122.9,179.14Z" style="fill:#cdd0e0"/><polygon points="574.78 308.82 555.78 313.82 187.78 313.82 168.78 308.82 168.78 296.82 574.78 296.82 574.78 308.82" style="fill:#fff"/><path d="M556,315.32l-368.57-.05L167.28,310V295.32h409V310Zm-368-3H555.59l17.69-4.65v-9.35h-403v9.35Z" style="fill:#cdd0e0"/><polygon points="169.78 307.82 187.78 313.82 555.78 313.82 575.28 307.82 169.78 307.82" style="fill:#cdd0e0"/><path d="M405.22,299c0,1.52-.62,2.75-1.38,2.75H340.21c-.75,0-1.37-1.23-1.37-2.75h0c0-1.52.62-2.75,1.37-2.75h63.63c.76,0,1.38,1.23,1.38,2.75Z" style="fill:#cdd0e0"/><path d="M520.53,280.32h-297V113.66h297Zm-294-3h291V116.66h-291Z" style="fill:#cdd0e0"/><polygon points="540.02 313.08 475.43 313.08 485.05 298.65 530.4 298.65 540.02 313.08" style="fill:#daddea"/><path d="M542.82,314.58H472.63l11.62-17.43h47Zm-64.58-3h59l-7.62-11.43H485.85Z" style="fill:#cdd0e0"/><path d="M542.82,314.58H472.63l11.62-17.43h47Zm-64.58-3h59l-7.62-11.43H485.85Z" style="fill:#cdd0e0"/><path d="M553.63,258.17a47.19,47.19,0,0,0-1.41-11.42h-90.6a46.74,46.74,0,0,0,22,51.9h46.58A46.69,46.69,0,0,0,553.63,258.17Z" style="fill:#fff"/><path d="M553.44,262.18c.11-1.32.19-2.66.19-4a47.19,47.19,0,0,0-1.41-11.42h-90.6a46.7,46.7,0,0,0-1.41,11.42c0,1.41.08,2.8.21,4.18C485.16,262.1,522.86,262,553.44,262.18Z" style="fill:#fff"/><path d="M459.05,263.86l-.13-1.38c-.14-1.64-.21-3-.21-4.31a48.32,48.32,0,0,1,1.46-11.79l.28-1.13h92.94l.28,1.13a48.38,48.38,0,0,1,1.46,11.79c0,1.26-.06,2.58-.2,4.14l-.11,1.38h-1.39c-10.65-.05-22.53-.07-34.35-.07-22.39,0-43.22.08-58.65.24Zm3.76-15.61a45.29,45.29,0,0,0-1.1,9.92c0,.83,0,1.7.09,2.67,15.29-.15,35.55-.23,57.28-.23,11.31,0,22.67,0,33,.07.05-.91.08-1.72.08-2.51a45.35,45.35,0,0,0-1.1-9.92Z" style="fill:#cdd0e0"/><path d="M530.61,300.15H483.23l-.35-.2a48.22,48.22,0,0,1-22.71-53.57l.28-1.13h92.94l.28,1.13A48.22,48.22,0,0,1,531,300Zm-46.58-3H529.8A45.2,45.2,0,0,0,551,248.25H462.81A45.21,45.21,0,0,0,484,297.15Z" style="fill:#cdd0e0"/><path d="M546,299.74c-3.67-3-5.34-5.9-5.09-8.84.47-5.49,7.53-9.48,15.69-14.11,4.91-2.78,10-5.65,14-9.05,3.54-3,5-6.6,4.09-10.22a9.6,9.6,0,0,0-7.32-6.95c-2.6-.55-7.72-.51-12.88,6.05l-2.36-1.86c4.5-5.72,10.28-8.32,15.87-7.12a12.6,12.6,0,0,1,9.6,9.16c1.17,4.72-.68,9.55-5.07,13.24s-9.46,6.52-14.48,9.36c-7.12,4-13.84,7.84-14.18,11.76-.16,1.85,1.19,3.95,4,6.25Z" style="fill:#cdd0e0"/></g></g></g></svg>