<svg xmlns="http://www.w3.org/2000/svg" xmlns:xlink="http://www.w3.org/1999/xlink" viewBox="0 0 744.53 397.36"><defs><linearGradient id="linear-gradient" x1="258.61" y1="312.94" x2="487.45" y2="84.11" gradientUnits="userSpaceOnUse"><stop offset="0" stop-color="#69cef4"/><stop offset="1" stop-color="#7379ba"/></linearGradient><linearGradient id="linear-gradient-2" x1="180.15" y1="281.92" x2="260.49" y2="201.57" xlink:href="#linear-gradient"/></defs><title>web</title><g id="Layer_2" data-name="Layer 2"><g id="Layer_1-2" data-name="Layer 1"><rect width="744.32" height="397.36" style="fill:none"/><g id="Workspace3"><path d="M597.19,92.71a50.25,50.25,0,1,1-50.25-50.25A50.24,50.24,0,0,1,597.19,92.71Z" style="fill:#fff"/><path d="M546.94,144.45a51.75,51.75,0,1,1,51.75-51.74A51.8,51.8,0,0,1,546.94,144.45Zm0-100.49a48.75,48.75,0,1,0,48.75,48.75A48.8,48.8,0,0,0,546.94,44Z" style="fill:#cdd0e0"/><path d="M580.38,92.71a33.44,33.44,0,1,1-33.44-33.44A33.44,33.44,0,0,1,580.38,92.71Z" style="fill:#e1e4ee"/><path d="M546.94,127.65a34.94,34.94,0,1,1,34.94-34.94A35,35,0,0,1,546.94,127.65Zm0-66.88a31.94,31.94,0,1,0,31.94,31.94A32,32,0,0,0,546.94,60.77Z" style="fill:#cdd0e0"/><path d="M548,94.86a1.5,1.5,0,0,1-1.5,1.5h0a1.5,1.5,0,0,1-1.5-1.5V71.36a1.5,1.5,0,0,1,1.5-1.5h0a1.5,1.5,0,0,1,1.5,1.5Z" style="fill:#cdd0e0"/><path d="M562.62,93.61A1.37,1.37,0,0,1,564,95h0a1.37,1.37,0,0,1-1.37,1.38H546.37A1.38,1.38,0,0,1,545,95h0a1.37,1.37,0,0,1,1.38-1.37Z" style="fill:#cdd0e0"/><polygon points="118.56 395.36 100.56 395.36 97.56 329.36 121.56 329.36 118.56 395.36" style="fill:#fff"/><path d="M120,396.86H99.13l-3.14-69h27.14Zm-18-3h15.14l2.86-63H99.13Z" style="fill:#cdd0e0"/><polygon points="97.56 332.36 98.74 358.36 120.38 358.36 121.56 332.36 97.56 332.36" style="fill:#cdd0e0"/><polygon points="645.56 395.36 627.56 395.36 624.56 329.36 648.56 329.36 645.56 395.36" style="fill:#fff"/><path d="M647,396.86H626.13l-3.14-69h27.14Zm-18-3h15.14l2.86-63H626.13Z" style="fill:#cdd0e0"/><polygon points="624.56 332.36 625.74 358.36 647.38 358.36 648.56 332.36 624.56 332.36" style="fill:#cdd0e0"/><rect x="3.03" y="316.36" width="740" height="26" style="fill:#fff"/><path d="M744.53,343.86H1.53v-29h743Zm-740-3h737v-23H4.53Z" style="fill:#cdd0e0"/><rect x="212.03" y="97.36" width="322" height="208" rx="20" ry="20" style="fill:#271f3e"/><path d="M514,306.86H232a21.52,21.52,0,0,1-21.5-21.5v-168A21.52,21.52,0,0,1,232,95.86H514a21.52,21.52,0,0,1,21.5,21.5v168A21.53,21.53,0,0,1,514,306.86Zm-282-208a18.52,18.52,0,0,0-18.5,18.5v168a18.52,18.52,0,0,0,18.5,18.5H514a18.52,18.52,0,0,0,18.5-18.5v-168A18.52,18.52,0,0,0,514,98.86Z" style="fill:#cdd0e0"/><rect x="226.03" y="116.69" width="294" height="163.67" style="fill:url(#linear-gradient)"/><path d="M521.53,281.86h-297V115.19h297Zm-294-3h291V118.19h-291Z" style="fill:#cdd0e0"/><polygon points="575.78 310.36 556.78 315.36 188.78 315.36 169.78 310.36 169.78 298.36 575.78 298.36 575.78 310.36" style="fill:#fff"/><path d="M557,316.86l-368.57-.05-20.12-5.3V296.86h409v14.65Zm-368-3H556.59l17.69-4.66v-9.34h-403v9.34Z" style="fill:#cdd0e0"/><polygon points="170.78 309.36 188.78 315.36 556.78 315.36 576.28 309.36 170.78 309.36" style="fill:#cdd0e0"/><path d="M406.22,300.52c0,1.52-.62,2.75-1.38,2.75H341.21c-.75,0-1.37-1.23-1.37-2.75h0c0-1.51.62-2.75,1.37-2.75h63.63c.76,0,1.38,1.24,1.38,2.75Z" style="fill:#cdd0e0"/><path d="M609.22,249.44v47a20,20,0,0,0,20,20h56a20,20,0,0,0,20-20v-47a19,19,0,0,0-.1-2H609.32A19,19,0,0,0,609.22,249.44Z" style="fill:#fff"/><path d="M685.71,317.94h-56a21.52,21.52,0,0,1-21.5-21.5v-47a19.73,19.73,0,0,1,.11-2.15l.13-1.35H707l.13,1.35a19.6,19.6,0,0,1,.11,2.15v47A21.52,21.52,0,0,1,685.71,317.94Zm-74.49-69v47.5a18.52,18.52,0,0,0,18.5,18.5h56a18.52,18.52,0,0,0,18.5-18.5v-47.5Z" style="fill:#cdd0e0"/><path d="M711.79,287.35a9.34,9.34,0,1,0-6-16.48v14.29A9.3,9.3,0,0,0,711.79,287.35Z" style="fill:none"/><path d="M711.79,259.35a18.6,18.6,0,0,0-6,1v10.52a9.34,9.34,0,1,1,0,14.29v10.52a18.66,18.66,0,1,0,6-36.33Z" style="fill:#fff"/><path d="M711.79,298.18a20.3,20.3,0,0,1-6.48-1.08l-1-.35V281.94l2.46,2.07a7.84,7.84,0,1,0,0-12l-2.46,2.07V259.27l1-.34a20.16,20.16,0,1,1,6.48,39.25Zm-4.5-3.61a17.16,17.16,0,1,0,4.5-33.72,16.83,16.83,0,0,0-4.5.61v6.7a10.83,10.83,0,1,1,4.5,20.69,10.7,10.7,0,0,1-4.5-1Z" style="fill:#cdd0e0"/><path d="M638.82,247.6l-3.65-49.84a5,5,0,0,0-10,.73l3.59,49.17Z" style="fill:#5e4b8b"/><path d="M681.45,247.52l3.58-49a5,5,0,0,0-10-.73l-3.64,49.76Z" style="fill:#5e4b8b"/><path d="M651.9,247.55l.68-46.83a5,5,0,0,0-10-.15l-.69,47Z" style="fill:#5e4b8b"/><path d="M646.79,247.58l3.27-27.1a5,5,0,0,0-9.93-1.2l-3.42,28.35Z" style="fill:#8fb2ae"/><path d="M663.06,247.52l5.12-42.45a5,5,0,0,0-9.92-1.2L653,247.55Z" style="fill:#5e4b8b"/><path d="M674.19,247.52,674,218.19a5,5,0,0,0-10,.08l.23,29.26Z" style="fill:#8fb2ae"/><path d="M627.4,249.16l-3.7-50.56a6,6,0,0,1,1.62-4.54,6.63,6.63,0,0,1,4.41-2.1,6.37,6.37,0,0,1,6.94,5.69l3.76,51.44h-1.61l-10,.06Zm2.84-54.22H630a3.65,3.65,0,0,0-2.43,1.15,3,3,0,0,0-.83,2.28l3.5,47.77,7,0-3.53-48.24A3.32,3.32,0,0,0,630.24,194.94Z" style="fill:#cdd0e0"/><path d="M682.84,249h-13l3.75-51.37A6.38,6.38,0,0,1,680.5,192a6.63,6.63,0,0,1,4.41,2.1,6,6,0,0,1,1.62,4.54Zm-9.68-3h6.89l3.49-47.64a3,3,0,0,0-.83-2.28,3.65,3.65,0,0,0-2.43-1.15,3.38,3.38,0,0,0-3.73,2.92L673,246Z" style="fill:#cdd0e0"/><path d="M640.38,249.09l.71-48.54a6.35,6.35,0,0,1,6.48-6.08h.1a6.64,6.64,0,0,1,4.54,1.84,6,6,0,0,1,1.87,4.43l-.7,48.31h-1.47l-10,0Zm7.25-51.62a3.36,3.36,0,0,0-3.54,3.12l-.67,45.49,7,0,.66-45.35a3,3,0,0,0-1-2.23,3.66,3.66,0,0,0-2.5-1Z" style="fill:#cdd0e0"/><path d="M651.29,249.05l5.48-45.36a6.35,6.35,0,0,1,7.19-5.35,6.55,6.55,0,0,1,4.31,2.31,5.94,5.94,0,0,1,1.4,4.6L664.39,249h-1.33l-10.07,0Zm11.84-47.76a3.29,3.29,0,0,0-3.38,2.76l-5.08,42h7.06l5-41.14a3,3,0,0,0-.71-2.31,3.63,3.63,0,0,0-2.38-1.26A3.71,3.71,0,0,0,663.13,201.29Z" style="fill:#cdd0e0"/><path d="M674.19,247.52,674,218.19a5,5,0,0,0-10,.08l.23,29.26Z" style="fill:#7379ba"/><path d="M662.7,249l-.24-30.75a6,6,0,0,1,1.91-4.42,6.68,6.68,0,0,1,4.54-1.81,6.37,6.37,0,0,1,6.55,6.13L675.7,249h-13Zm6.27-34a3.68,3.68,0,0,0-2.54,1,3,3,0,0,0-1,2.22l.22,27.77h7l-.22-27.82A3.36,3.36,0,0,0,669,215.05Z" style="fill:#cdd0e0"/><path d="M622.29,247.69l10.42-.06L620.87,208a5,5,0,0,0-9.58,2.86Z" style="fill:#7379ba"/><path d="M622.17,249.2l-11.32-37.91a6,6,0,0,1,.6-4.78,6.65,6.65,0,0,1,3.86-3,6.82,6.82,0,0,1,2-.29,6.21,6.21,0,0,1,6,4.35l12.41,41.54-2,0-10.41.06Zm-4.91-43a4.11,4.11,0,0,0-1.09.16A3.66,3.66,0,0,0,614,208a3,3,0,0,0-.32,2.4l10.68,35.76,7.3-.05-11.27-37.71A3.22,3.22,0,0,0,617.26,206.22Z" style="fill:#cdd0e0"/><path d="M646.79,247.58l3.27-27.1a5,5,0,0,0-9.93-1.2l-3.42,28.35Z" style="fill:#7379ba"/><path d="M635,249.14l3.63-30a6.36,6.36,0,0,1,7.2-5.35,6.64,6.64,0,0,1,4.31,2.31,6,6,0,0,1,1.4,4.6l-3.43,28.41h-1.33l-10.07,0Zm10-32.44a3.31,3.31,0,0,0-3.39,2.76l-3.22,26.66,7.06,0,3.11-25.78a3,3,0,0,0-.72-2.31,3.61,3.61,0,0,0-2.37-1.26Z" style="fill:#cdd0e0"/><path d="M690,247.53l11-36.67a5,5,0,0,0-9.58-2.86l-11.8,39.52Z" style="fill:#7379ba"/><path d="M691.1,249H677.54l12.38-41.45a6.21,6.21,0,0,1,6.05-4.35,6.88,6.88,0,0,1,1.95.29,6.65,6.65,0,0,1,3.86,3,6,6,0,0,1,.6,4.78Zm-9.53-3h7.3l10.63-35.6a3,3,0,0,0-.31-2.4,3.69,3.69,0,0,0-2.13-1.65,4.11,4.11,0,0,0-1.09-.16,3.21,3.21,0,0,0-3.17,2.21Z" style="fill:#cdd0e0"/><rect x="58.22" y="211.95" width="12" height="97.5" style="fill:#271f3e"/><path d="M71.72,311h-15V210.45h15Zm-12-3h9v-94.5h-9Z" style="fill:#cdd0e0"/><path d="M119,309.45a5.24,5.24,0,0,1-5.25,5.24h-78a5.24,5.24,0,0,1-5.25-5.24h0a5.25,5.25,0,0,1,5.25-5.25h78a5.25,5.25,0,0,1,5.25,5.25Z" style="fill:#271f3e"/><path d="M113.72,316.19h-78a6.75,6.75,0,1,1,0-13.49h78a6.75,6.75,0,1,1,0,13.49Zm-78-10.49a3.75,3.75,0,1,0,0,7.49h78a3.75,3.75,0,1,0,0-7.49Z" style="fill:#cdd0e0"/><rect x="177.2" y="27.71" width="49.52" height="5" transform="translate(66.62 183.13) rotate(-57)" style="fill:#cdd0e0"/><rect x="-10.16" y="150.72" width="260.99" height="13.5" transform="translate(-77.13 174.4) rotate(-57.52)" style="fill:#271f3e"/><path d="M56.4,273.25l-13.91-8.86L184.26,41.7l13.92,8.86Zm-9.77-9.78,8.85,5.63L194,51.48l-8.86-5.64Z" style="fill:#cdd0e0"/><path d="M322.71,14.71A9.28,9.28,0,0,1,313.43,24H216.49a9.28,9.28,0,0,1-9.28-9.28h0a9.28,9.28,0,0,1,9.28-9.28h96.94a9.28,9.28,0,0,1,9.28,9.28Z" style="fill:#271f3e"/><path d="M313.43,25.49H216.49a10.78,10.78,0,0,1,0-21.56h96.94a10.78,10.78,0,0,1,0,21.56ZM216.49,6.93a7.78,7.78,0,0,0,0,15.56h96.94a7.78,7.78,0,0,0,0-15.56Z" style="fill:#cdd0e0"/><path d="M232.75,275.3h279a1,1,0,0,0,1-1.07V125.62a1,1,0,0,0-1-1.07h-279a1,1,0,0,0-1,1.07V274.23A1,1,0,0,0,232.75,275.3Zm43.38-129.67V126.69H510.78v20.72H276.13Zm-42.38,0V126.69h40.39v20.72H233.75Zm0,125.74V149.56h277V273.15h-277Z" style="fill:#cdd0e0"/><path d="M243.35,206.71h143a1,1,0,0,0,1-1.07V159.91a1,1,0,0,0-1-1.07h-143a1,1,0,0,0-1,1.07v45.73A1,1,0,0,0,243.35,206.71Zm1-3.93V161H385.41v43.58H244.34Z" style="fill:#cdd0e0"/><path d="M243.35,263.87h53a1,1,0,0,0,1-1.08V217.07a1,1,0,0,0-1-1.07h-53a1,1,0,0,0-1,1.07v45.72A1,1,0,0,0,243.35,263.87Zm44.23-2.15H245.75l2.82-3.05,15.14-16.32,1-1,1.13.81,22.7,16.33,4.55,3.27Zm7.76-14.64v13.71l-2.58-1.85-13.85-10-1.68-1.21,1.42-1.54,6.16-6.65,1-1.09,1.15.93,7.69,6.23.67.53Zm-51,8.82V218.14h51V243.5l-2.65-2.14-6.36-5.14a.93.93,0,0,0-1.3.1l-8.53,9.2-1,1-1.13-.81-9.32-6.7a.91.91,0,0,0-.55-.18,1,1,0,0,0-.7.31l-16.67,18-2.83,3Z" style="fill:#cdd0e0"/><path d="M306.93,235.29H386.4a1,1,0,0,0,1-1.07V217.07a1,1,0,0,0-1-1.07H306.93a1,1,0,0,0-1,1.07v17.15A1,1,0,0,0,306.93,235.29Zm1-3.93V218.14h77.49v15H307.92Z" style="fill:#cdd0e0"/><path d="M306.93,263.87H386.4a1,1,0,0,0,1-1.08V245.65a1,1,0,0,0-1-1.07H306.93a1,1,0,0,0-1,1.07v17.14A1,1,0,0,0,306.93,263.87Zm1-3.93V246.72h77.49v15H307.92Z" style="fill:#cdd0e0"/><rect x="316.53" y="224.57" width="60.27" height="2.14" style="fill:#cdd0e0"/><rect x="316.53" y="253.15" width="60.27" height="2.14" style="fill:#cdd0e0"/><ellipse cx="241.34" cy="136.65" rx="3.65" ry="3.94" style="fill:#cdd0e0"/><ellipse cx="253.94" cy="136.65" rx="3.65" ry="3.94" style="fill:#cdd0e0"/><ellipse cx="266.53" cy="136.65" rx="3.65" ry="3.94" style="fill:#cdd0e0"/><path d="M392.25,178h79.48a1,1,0,0,0,1-1.07V159.77a1,1,0,0,0-1-1.08H392.25a1,1,0,0,0-1,1.08v17.14A1,1,0,0,0,392.25,178Zm1-3.92V160.84h77.48v15H393.25Z" style="fill:#cdd0e0"/><polygon points="347.63 195.52 347.63 216.84 353.11 211.36 357.1 219.03 359.99 217.54 356.16 210.14 363.56 210.14 347.63 195.52" style="fill:#fff"/><rect x="188.95" y="178.14" width="62.74" height="127.65" rx="10.82" ry="10.82" style="fill:#271f3e"/><path d="M240.87,307h-41.1a12,12,0,0,1-12-12V189a12,12,0,0,1,12-12h41.1a12,12,0,0,1,12,12V295A12,12,0,0,1,240.87,307Zm-41.1-127.64a9.62,9.62,0,0,0-9.62,9.62V295a9.63,9.63,0,0,0,9.62,9.62h41.1A9.64,9.64,0,0,0,250.5,295V189a9.63,9.63,0,0,0-9.63-9.62Z" style="fill:#cdd0e0"/><path d="M246.16,293.45a7.3,7.3,0,0,1-7.52,7.07H202a7.3,7.3,0,0,1-7.51-7.07V190A7.3,7.3,0,0,1,202,183h36.64a7.31,7.31,0,0,1,7.52,7.07Z" style="fill:url(#linear-gradient-2)"/><path d="M234.1,183.72a2.8,2.8,0,0,1-2.8,2.8h-22a2.8,2.8,0,0,1-2.8-2.8h0a2.8,2.8,0,0,1,2.8-2.8h22a2.8,2.8,0,0,1,2.8,2.8Z" style="fill:#271f3e"/><path d="M258.28,306.45a18,18,0,0,0-18-18h-40.5a18,18,0,0,0-18,18,17.79,17.79,0,0,0,2.43,9h71.64A17.89,17.89,0,0,0,258.28,306.45Z" style="fill:#fff"/><path d="M256.71,316.94H183.34l-.43-.74A19.48,19.48,0,0,1,199.78,287h40.5a19.48,19.48,0,0,1,16.87,29.25Zm-71.61-3H255a16.47,16.47,0,0,0-14.68-24h-40.5a16.47,16.47,0,0,0-14.68,24Z" style="fill:#cdd0e0"/><rect x="218.9" y="226.95" width="2.25" height="6" style="fill:#fff"/><rect x="213.65" y="228.35" width="2.25" height="6" transform="translate(-86.91 138.4) rotate(-30)" style="fill:#fff"/><rect x="209.81" y="232.2" width="2.25" height="6" transform="translate(-98.2 300.39) rotate(-60.02)" style="fill:#fff"/><rect x="206.53" y="239.32" width="6" height="2.25" style="fill:#fff"/><rect x="207.93" y="244.57" width="6" height="2.25" transform="translate(-94.59 138.4) rotate(-30)" style="fill:#fff"/><rect x="211.78" y="248.42" width="6" height="2.25" transform="translate(-108.74 310.68) rotate(-59.98)" style="fill:#fff"/><rect x="218.9" y="247.95" width="2.25" height="6" style="fill:#fff"/><rect x="224.15" y="246.54" width="2.25" height="6" transform="translate(-94.6 146.11) rotate(-30.01)" style="fill:#fff"/><rect x="228" y="242.7" width="2.25" height="6" transform="translate(-98.19 321.39) rotate(-60.02)" style="fill:#fff"/><rect x="227.53" y="239.32" width="6" height="2.25" style="fill:#fff"/><rect x="226.12" y="234.07" width="6" height="2.25" transform="translate(-86.87 145.96) rotate(-29.98)" style="fill:#fff"/><rect x="222.28" y="230.23" width="6" height="2.25" transform="translate(-87.7 310.85) rotate(-60.01)" style="fill:#fff"/></g></g></g></svg>